<?xml version="1.0" encoding="UTF-8"?>
<!DOCTYPE svg PUBLIC "-//W3C//DTD SVG 1.0//EN" "http://www.w3.org/TR/2001/REC-SVG-20010904/DTD/svg10.dtd">
<!-- Creator: CorelDRAW 2021.5 -->
<svg xmlns="http://www.w3.org/2000/svg" xml:space="preserve" width="295px" height="295px" version="1.0" style="shape-rendering:geometricPrecision; text-rendering:geometricPrecision; image-rendering:optimizeQuality; fill-rule:evenodd; clip-rule:evenodd"
viewBox="0 0 26.61 26.61"
 xmlns:xlink="http://www.w3.org/1999/xlink"
 xmlns:xodm="http://www.corel.com/coreldraw/odm/2003">
 <defs>
  <style type="text/css">
   <![CDATA[
    .fil4 {fill:none}
    .fil0 {fill:#A0D9F6;fill-rule:nonzero}
    .fil1 {fill:#3CAAE1;fill-rule:nonzero}
    .fil3 {fill:#464546;fill-rule:nonzero}
    .fil2 {fill:#2B92D1;fill-rule:nonzero}
   ]]>
  </style>
 </defs>
 <g id="Layer_x0020_1">
  <metadata id="CorelCorpID_0Corel-Layer"/>
  <g id="_2138014825376">
   <path class="fil0" d="M23.36 7.76l1.31 -6.7c-1.77,0.17 -3.47,0.41 -5.08,0.71l-1.17 5.99 -1.86 9.53c1.52,0.22 3.15,0.38 4.85,0.46l1.95 -9.99z"/>
   <path class="fil1" d="M17.83 7.76l1.14 -5.87c-2.3,0.47 -4.41,1.07 -6.25,1.76l-0.81 4.11 -1.55 7.97c1.6,0.62 3.51,1.11 5.63,1.47l1.84 -9.44z"/>
   <path class="fil2" d="M9.81 15.52l2.27 -11.62c-3.77,1.52 -6.33,3.47 -7,5.53l-0.16 0.84c-0.01,0.14 -0.01,0.28 0,0.42 0.12,1.93 1.94,3.59 4.89,4.83z"/>
   <path class="fil3" d="M4.92 22.99c0.41,0 0.81,0 1.22,0 -0.13,-0.5 -0.25,-1 -0.37,-1.5 -0.28,0.49 -0.56,0.99 -0.85,1.5z"/>
   <path class="fil3" d="M4.59 11.96l-2.65 13.58 5.92 0 1.73 -8.89c-2.62,-1.2 -4.41,-2.8 -5,-4.69zm2.05 12.71l0 0c0,0 -0.03,-0.08 -0.04,-0.12 -0.1,-0.31 -0.19,-0.62 -0.28,-0.94 -0.44,0 -1.75,0 -1.75,0 0,0 -0.45,0.77 -0.57,0.97 -0.03,0.04 -0.06,0.09 -0.06,0.09 0,0 -0.51,-0.01 -0.77,-0.01 0.93,-1.54 1.85,-3.06 2.8,-4.62 0.47,1.56 0.93,3.08 1.4,4.62 -0.24,0 -0.73,0.01 -0.73,0.01z"/>
   <path class="fil3" d="M10.13 16.89l-1.68 8.65 5.91 0 1.38 -7.09c-2.1,-0.36 -3.99,-0.89 -5.61,-1.56zm3.35 7.99l0 0c-0.91,-1.1 -1.79,-2.18 -2.67,-3.24 -0.17,0.97 -0.34,1.96 -0.52,2.94 0,0.03 -0.02,0.11 -0.02,0.11 0,0 -0.45,0 -0.67,0 0.27,-1.53 0.54,-3.06 0.82,-4.62 0.91,1.1 1.79,2.17 2.66,3.23 0.08,-0.42 0.16,-0.85 0.23,-1.28 0.1,-0.55 0.2,-1.1 0.3,-1.65 0.01,-0.02 0.02,-0.1 0.02,-0.1 0,0 0.46,-0.01 0.67,-0.01 -0.27,1.54 -0.54,3.06 -0.82,4.62z"/>
   <path class="fil3" d="M16.31 18.55l-1.36 6.99 4.94 0 1.28 -6.55c-1.7,-0.05 -3.33,-0.2 -4.86,-0.44zm3.12 2.87l0 0c-0.07,0.77 -0.39,1.13 -1.14,1.32 -0.01,0 -0.03,0.01 -0.04,0.01 0.36,0.62 0.74,1.26 1.12,1.91 -0.28,0 -0.79,0.01 -0.79,0.01 0,0 -0.05,-0.08 -0.07,-0.12 -0.32,-0.55 -0.64,-1.11 -0.96,-1.66 -0.01,-0.04 -0.06,-0.09 -0.06,-0.09 0,0 -0.07,-0.01 -0.14,-0.01 -0.08,0.44 -0.16,0.88 -0.25,1.33 -0.02,0.15 -0.1,0.55 -0.1,0.55 0,0 -0.47,-0.01 -0.7,-0.01 0.03,-0.16 0.05,-0.31 0.08,-0.46 0.21,-1.19 0.42,-2.37 0.63,-3.55 0.04,-0.21 0.08,-0.42 0.08,-0.42 0,0 0.2,0 0.4,0 0.38,0.01 0.76,0.01 1.13,0.06 0.52,0.08 0.86,0.56 0.81,1.13z"/>
   <path class="fil3" d="M18.37 20.95c-0.19,-0.04 -0.69,-0.07 -0.69,-0.07 0,0 -0.01,0.07 -0.02,0.11 -0.03,0.21 -0.07,0.42 -0.11,0.62 -0.03,0.19 -0.07,0.38 -0.1,0.6 0.24,-0.03 0.47,-0.04 0.69,-0.07 0.51,-0.06 0.62,-0.49 0.56,-0.86 -0.03,-0.19 -0.15,-0.3 -0.33,-0.33z"/>
   <path class="fil3" d="M21.78 19.01l-1.27 6.53 2.62 0 1.27 -6.56c-0.89,0.04 -1.76,0.04 -2.62,0.03zm1.21 2.08l0 0c-0.18,1 -0.36,2.01 -0.54,3.01 -0.03,0.16 -0.06,0.32 -0.09,0.48 -0.01,0.03 -0.05,0.08 -0.08,0.08 -0.21,0.01 -0.42,0 -0.66,0 0.27,-1.48 0.53,-2.95 0.79,-4.42 0.25,0 0.48,0 0.73,0 -0.05,0.29 -0.1,0.57 -0.15,0.85z"/>
  </g>
  <rect class="fil4" width="26.61" height="26.61"/>
 </g>
</svg>
