<?xml version="1.0" encoding="UTF-8"?>
<!DOCTYPE svg PUBLIC "-//W3C//DTD SVG 1.0//EN" "http://www.w3.org/TR/2001/REC-SVG-20010904/DTD/svg10.dtd">
<!-- Creator: CorelDRAW 2021.5 -->
<svg xmlns="http://www.w3.org/2000/svg" xml:space="preserve" width="300px" height="72px" version="1.0" style="shape-rendering:geometricPrecision; text-rendering:geometricPrecision; image-rendering:optimizeQuality; fill-rule:evenodd; clip-rule:evenodd"
viewBox="0 0 150.41 36.1"
 xmlns:xlink="http://www.w3.org/1999/xlink"
 xmlns:xodm="http://www.corel.com/coreldraw/odm/2003">
 <defs>
  <style type="text/css">
   <![CDATA[
    .fil0 {fill:none}
    .fil5 {fill:#332C2B;fill-rule:nonzero}
    .fil1 {fill:#A0D9F6;fill-rule:nonzero}
    .fil2 {fill:#3CAAE1;fill-rule:nonzero}
    .fil4 {fill:#464546;fill-rule:nonzero}
    .fil3 {fill:#2B92D1;fill-rule:nonzero}
   ]]>
  </style>
 </defs>
 <g id="Layer_x0020_1">
  <metadata id="CorelCorpID_0Corel-Layer"/>
  <polygon class="fil0" points="0,0 150.41,0 150.41,36.1 0,36.1 "/>
  <path class="fil1" d="M37.49 10.22l1.85 -9.47c-2.49,0.23 -4.9,0.57 -7.18,1.01l-1.65 8.46 -2.62 13.46c2.15,0.32 4.44,0.54 6.85,0.65l2.75 -14.11z"/>
  <path class="fil2" d="M29.68 10.22l1.62 -8.3c-3.26,0.66 -6.24,1.5 -8.85,2.49l-1.13 5.81 -2.2 11.27c2.27,0.86 4.96,1.56 7.96,2.06l2.6 -13.33z"/>
  <path class="fil3" d="M18.35 21.18l3.2 -16.42c-5.33,2.15 -8.95,4.9 -9.88,7.82l-0.24 1.18c-0.01,0.2 -0.01,0.4 0,0.6 0.17,2.72 2.74,5.07 6.92,6.82z"/>
  <path class="fil4" d="M11.43 31.75c0.59,0 1.15,0 1.73,0 -0.18,-0.72 -0.35,-1.42 -0.53,-2.13 -0.39,0.7 -0.79,1.4 -1.2,2.13z"/>
  <path class="fil4" d="M10.97 16.15l-3.75 19.2 8.36 0 2.46 -12.57c-3.71,-1.7 -6.24,-3.96 -7.07,-6.63zm2.89 17.96l0 0c0,0 -0.04,-0.11 -0.06,-0.17 -0.13,-0.43 -0.26,-0.87 -0.39,-1.32 -0.62,0 -2.47,0 -2.47,0 0,0 -0.63,1.09 -0.81,1.37 -0.03,0.05 -0.08,0.12 -0.08,0.12 0,0 -0.72,0 -1.09,0 1.32,-2.19 2.62,-4.34 3.95,-6.54 0.67,2.2 1.32,4.35 1.99,6.53 -0.35,0 -1.04,0.01 -1.04,0.01z"/>
  <path class="fil4" d="M18.8 23.11l-2.38 12.24 8.36 0 1.95 -10.02c-2.97,-0.51 -5.65,-1.26 -7.93,-2.22zm4.74 11.3l0 0c-1.29,-1.56 -2.54,-3.08 -3.79,-4.58 -0.24,1.37 -0.48,2.77 -0.73,4.16 0,0.03 -0.03,0.16 -0.03,0.16 0,0 -0.63,0 -0.94,0 0.38,-2.18 0.77,-4.33 1.16,-6.54 1.28,1.55 2.52,3.07 3.76,4.57 0.11,-0.6 0.22,-1.2 0.33,-1.81 0.14,-0.78 0.27,-1.56 0.42,-2.33 0.01,-0.04 0.03,-0.14 0.03,-0.14 0,0 0.64,-0.02 0.95,-0.02 -0.39,2.17 -0.77,4.32 -1.16,6.53z"/>
  <path class="fil4" d="M27.54 25.46l-1.93 9.89 6.98 0 1.81 -9.26c-2.41,-0.08 -4.71,-0.29 -6.86,-0.63zm4.4 4.07l0 0c-0.09,1.08 -0.55,1.59 -1.62,1.85 -0.01,0.01 -0.03,0.01 -0.05,0.02 0.51,0.88 1.05,1.78 1.59,2.7 -0.39,0 -1.12,0.01 -1.12,0.01 0,0 -0.07,-0.1 -0.1,-0.16 -0.46,-0.79 -0.9,-1.57 -1.35,-2.36 -0.03,-0.05 -0.09,-0.11 -0.09,-0.11 0,0 -0.1,-0.02 -0.2,-0.02 -0.12,0.62 -0.23,1.25 -0.35,1.88 -0.04,0.21 -0.15,0.77 -0.15,0.77 0,0 -0.66,0 -0.98,0 0.04,-0.24 0.07,-0.45 0.11,-0.66 0.3,-1.68 0.6,-3.35 0.9,-5.02 0.05,-0.29 0.1,-0.59 0.1,-0.59 0,0 0.28,0 0.57,0 0.53,0.02 1.07,0.01 1.59,0.09 0.74,0.11 1.22,0.78 1.15,1.6z"/>
  <path class="fil4" d="M30.45 28.85c-0.27,-0.05 -0.98,-0.09 -0.98,-0.09 0,0 -0.02,0.09 -0.03,0.16 -0.05,0.29 -0.1,0.58 -0.16,0.87 -0.04,0.27 -0.09,0.54 -0.14,0.84 0.35,-0.03 0.66,-0.05 0.97,-0.09 0.73,-0.09 0.88,-0.7 0.8,-1.22 -0.05,-0.26 -0.21,-0.42 -0.46,-0.47z"/>
  <path class="fil4" d="M35.26 26.11l-1.8 9.24 3.7 0 1.81 -9.27c-1.26,0.04 -2.49,0.05 -3.71,0.03zm1.72 2.94l0 0c-0.26,1.42 -0.52,2.84 -0.78,4.26 -0.04,0.23 -0.07,0.45 -0.12,0.67 -0.01,0.05 -0.07,0.12 -0.11,0.12 -0.3,0.01 -0.6,0 -0.93,0 0.38,-2.09 0.75,-4.16 1.12,-6.25 0.35,0 0.67,0 1.02,0 -0.07,0.41 -0.13,0.8 -0.2,1.2z"/>
  <path class="fil5" d="M46.15 4.97l1.51 0 -0.56 -1.23c-0.03,-0.08 -0.06,-0.17 -0.1,-0.28 -0.03,-0.1 -0.06,-0.21 -0.1,-0.34 -0.03,0.12 -0.06,0.23 -0.09,0.33 -0.04,0.11 -0.07,0.2 -0.1,0.29l-0.56 1.23zm2.44 2.14l-0.62 -1.4 -2.15 0 -0.63 1.4 -0.93 0 2.63 -5.64 2.63 5.64 -0.93 0zm2.32 -3.11l0.16 0c0.47,0 0.78,-0.06 0.93,-0.17 0.16,-0.11 0.23,-0.3 0.23,-0.58 0,-0.3 -0.08,-0.51 -0.24,-0.63 -0.17,-0.12 -0.47,-0.18 -0.92,-0.18l-0.16 0 0 1.56zm-0.05 0.68l0 2.43 -0.83 0 0 -5.43 1.23 0c0.36,0 0.64,0.02 0.84,0.07 0.2,0.05 0.37,0.12 0.51,0.23 0.17,0.13 0.3,0.3 0.39,0.51 0.09,0.21 0.14,0.44 0.14,0.68 0,0.44 -0.11,0.78 -0.32,1.03 -0.21,0.24 -0.52,0.39 -0.93,0.44l1.87 2.47 -1 0 -1.8 -2.43 -0.1 0zm3.11 1.34l0.71 -0.32c0.06,0.24 0.19,0.42 0.36,0.55 0.18,0.13 0.41,0.19 0.69,0.19 0.26,0 0.47,-0.07 0.62,-0.22 0.16,-0.14 0.23,-0.34 0.23,-0.58 0,-0.32 -0.26,-0.61 -0.79,-0.86 -0.08,-0.03 -0.13,-0.06 -0.17,-0.08 -0.6,-0.29 -1,-0.55 -1.2,-0.79 -0.2,-0.24 -0.3,-0.53 -0.3,-0.87 0,-0.44 0.15,-0.8 0.45,-1.07 0.3,-0.28 0.7,-0.41 1.19,-0.41 0.4,0 0.73,0.07 1,0.23 0.27,0.15 0.46,0.37 0.56,0.66l-0.69 0.36c-0.11,-0.17 -0.23,-0.3 -0.36,-0.37 -0.13,-0.08 -0.28,-0.12 -0.44,-0.12 -0.24,0 -0.43,0.06 -0.57,0.18 -0.14,0.13 -0.21,0.29 -0.21,0.5 0,0.33 0.31,0.63 0.92,0.91 0.05,0.02 0.09,0.04 0.11,0.05 0.54,0.25 0.91,0.49 1.11,0.73 0.2,0.24 0.3,0.53 0.3,0.88 0,0.52 -0.16,0.93 -0.49,1.23 -0.32,0.3 -0.76,0.45 -1.31,0.45 -0.46,0 -0.84,-0.1 -1.14,-0.32 -0.29,-0.21 -0.49,-0.51 -0.58,-0.91zm4.5 1.09l0 -5.43 0.88 0 0 5.43 -0.88 0zm3.03 -3.16l0.22 0c0.49,0 0.82,-0.05 0.98,-0.16 0.17,-0.11 0.25,-0.29 0.25,-0.56 0,-0.29 -0.09,-0.5 -0.26,-0.61 -0.18,-0.12 -0.5,-0.18 -0.97,-0.18l-0.22 0 0 1.51zm-0.06 0.72l0 2.44 -0.82 0 0 -5.43 1.33 0c0.4,0 0.69,0.02 0.88,0.06 0.18,0.05 0.35,0.12 0.48,0.22 0.18,0.12 0.31,0.29 0.41,0.51 0.09,0.21 0.14,0.45 0.14,0.7 0,0.26 -0.05,0.5 -0.14,0.71 -0.1,0.22 -0.23,0.39 -0.41,0.52 -0.13,0.1 -0.3,0.17 -0.48,0.21 -0.19,0.04 -0.48,0.06 -0.88,0.06l-0.17 0 -0.34 0zm5.51 2.44l0 -5.64 3.45 3.31c0.1,0.1 0.19,0.2 0.29,0.3 0.09,0.11 0.2,0.23 0.3,0.36l0 -3.76 0.81 0 0 5.64 -3.51 -3.38c-0.1,-0.09 -0.19,-0.19 -0.28,-0.29 -0.08,-0.1 -0.17,-0.21 -0.25,-0.32l0 3.78 -0.81 0zm7.25 -2.14l1.51 0 -0.56 -1.23c-0.03,-0.08 -0.06,-0.17 -0.1,-0.28 -0.03,-0.1 -0.07,-0.21 -0.1,-0.34 -0.03,0.12 -0.06,0.23 -0.09,0.33 -0.04,0.11 -0.07,0.2 -0.11,0.29l-0.55 1.23zm2.44 2.14l-0.62 -1.4 -2.15 0 -0.63 1.4 -0.93 0 2.63 -5.64 2.63 5.64 -0.93 0zm1.13 -1.09l0.7 -0.32c0.07,0.24 0.19,0.42 0.37,0.55 0.18,0.13 0.41,0.19 0.68,0.19 0.27,0 0.47,-0.07 0.63,-0.22 0.15,-0.14 0.23,-0.34 0.23,-0.58 0,-0.32 -0.26,-0.61 -0.79,-0.86 -0.08,-0.03 -0.14,-0.06 -0.17,-0.08 -0.6,-0.29 -1,-0.55 -1.2,-0.79 -0.2,-0.24 -0.3,-0.53 -0.3,-0.87 0,-0.44 0.15,-0.8 0.45,-1.07 0.3,-0.28 0.7,-0.41 1.18,-0.41 0.4,0 0.74,0.07 1.01,0.23 0.27,0.15 0.45,0.37 0.56,0.66l-0.69 0.36c-0.11,-0.17 -0.23,-0.3 -0.36,-0.37 -0.13,-0.08 -0.28,-0.12 -0.45,-0.12 -0.23,0 -0.42,0.06 -0.56,0.18 -0.14,0.13 -0.21,0.29 -0.21,0.5 0,0.33 0.3,0.63 0.92,0.91 0.05,0.02 0.08,0.04 0.11,0.05 0.54,0.25 0.9,0.49 1.1,0.73 0.2,0.24 0.3,0.53 0.3,0.88 0,0.52 -0.16,0.93 -0.48,1.23 -0.33,0.3 -0.76,0.45 -1.32,0.45 -0.46,0 -0.84,-0.1 -1.13,-0.32 -0.3,-0.21 -0.49,-0.51 -0.58,-0.91zm4.49 1.09l0 -5.43 0.88 0 0 5.43 -0.88 0zm6.8 -2.7c0,-0.28 -0.05,-0.54 -0.15,-0.79 -0.1,-0.24 -0.24,-0.46 -0.43,-0.66 -0.18,-0.19 -0.4,-0.33 -0.64,-0.44 -0.24,-0.1 -0.49,-0.15 -0.76,-0.15 -0.27,0 -0.52,0.05 -0.76,0.15 -0.24,0.1 -0.46,0.25 -0.64,0.44 -0.19,0.19 -0.34,0.41 -0.43,0.66 -0.1,0.25 -0.15,0.51 -0.15,0.79 0,0.27 0.05,0.53 0.15,0.77 0.09,0.25 0.24,0.47 0.43,0.66 0.18,0.19 0.4,0.34 0.64,0.44 0.24,0.1 0.49,0.15 0.76,0.15 0.27,0 0.52,-0.05 0.76,-0.15 0.23,-0.1 0.45,-0.25 0.64,-0.44 0.19,-0.19 0.33,-0.41 0.43,-0.66 0.1,-0.24 0.15,-0.5 0.15,-0.77zm0.92 0c0,0.38 -0.07,0.75 -0.22,1.09 -0.14,0.34 -0.35,0.65 -0.63,0.92 -0.28,0.27 -0.59,0.47 -0.94,0.62 -0.35,0.14 -0.72,0.21 -1.11,0.21 -0.39,0 -0.76,-0.07 -1.12,-0.21 -0.35,-0.15 -0.66,-0.35 -0.94,-0.62 -0.27,-0.27 -0.48,-0.58 -0.63,-0.92 -0.14,-0.34 -0.21,-0.7 -0.21,-1.09 0,-0.39 0.07,-0.76 0.21,-1.1 0.15,-0.35 0.36,-0.65 0.63,-0.93 0.28,-0.27 0.59,-0.47 0.95,-0.61 0.35,-0.14 0.72,-0.21 1.11,-0.21 0.39,0 0.76,0.07 1.11,0.21 0.35,0.14 0.67,0.34 0.94,0.61 0.28,0.28 0.49,0.59 0.63,0.93 0.15,0.35 0.22,0.71 0.22,1.1zm1.01 2.7l0 -5.64 3.45 3.31c0.1,0.1 0.19,0.2 0.29,0.3 0.09,0.11 0.2,0.23 0.3,0.36l0 -3.76 0.81 0 0 5.64 -3.51 -3.38c-0.1,-0.09 -0.19,-0.19 -0.27,-0.29 -0.09,-0.1 -0.18,-0.21 -0.26,-0.32l0 3.78 -0.81 0zm7.25 -2.14l1.51 0 -0.55 -1.23c-0.04,-0.08 -0.07,-0.17 -0.1,-0.28 -0.04,-0.1 -0.07,-0.21 -0.11,-0.34 -0.03,0.12 -0.06,0.23 -0.09,0.33 -0.04,0.11 -0.07,0.2 -0.1,0.29l-0.56 1.23zm2.44 2.14l-0.62 -1.4 -2.15 0 -0.63 1.4 -0.92 0 2.62 -5.64 2.63 5.64 -0.93 0zm1.44 0l0 -5.43 0.88 0 0 4.64 1.98 0 0 0.79 -2.86 0zm-56.24 5.99l0.16 0c0.47,0 0.78,-0.06 0.93,-0.16 0.16,-0.11 0.23,-0.31 0.23,-0.58 0,-0.3 -0.08,-0.51 -0.24,-0.63 -0.17,-0.13 -0.47,-0.19 -0.92,-0.19l-0.16 0 0 1.56zm-0.05 0.68l0 2.43 -0.83 0 0 -5.43 1.23 0c0.36,0 0.64,0.03 0.84,0.07 0.2,0.05 0.37,0.13 0.51,0.24 0.17,0.13 0.3,0.3 0.39,0.5 0.09,0.21 0.14,0.44 0.14,0.69 0,0.43 -0.11,0.77 -0.32,1.02 -0.21,0.24 -0.52,0.39 -0.93,0.44l1.87 2.47 -0.99 0 -1.81 -2.43 -0.1 0zm3.42 2.43l0 -5.43 3.03 0 0 0.75 -2.14 0 0 1.36 2.14 0 0 0.78 -2.14 0 0 1.75 2.14 0 0 0.79 -3.03 0zm4.93 -3.16l0.22 0c0.49,0 0.82,-0.05 0.98,-0.16 0.17,-0.1 0.25,-0.29 0.25,-0.56 0,-0.29 -0.09,-0.49 -0.26,-0.61 -0.18,-0.12 -0.5,-0.18 -0.97,-0.18l-0.22 0 0 1.51zm-0.06 0.72l0 2.44 -0.82 0 0 -5.43 1.33 0c0.4,0 0.69,0.02 0.87,0.07 0.19,0.04 0.35,0.11 0.49,0.21 0.17,0.13 0.31,0.3 0.4,0.51 0.1,0.21 0.15,0.45 0.15,0.71 0,0.25 -0.05,0.49 -0.15,0.71 -0.09,0.22 -0.23,0.39 -0.4,0.51 -0.14,0.1 -0.3,0.17 -0.49,0.21 -0.18,0.04 -0.47,0.06 -0.87,0.06l-0.17 0 -0.34 0zm3.19 -2.99l0.88 0 0 3.3c0,0.49 0.11,0.86 0.34,1.1 0.22,0.25 0.56,0.37 1.01,0.37 0.45,0 0.79,-0.12 1.01,-0.37 0.23,-0.24 0.34,-0.61 0.34,-1.1l0 -3.3 0.88 0 0 3.38c0,0.73 -0.18,1.29 -0.55,1.65 -0.37,0.36 -0.93,0.55 -1.68,0.55 -0.75,0 -1.3,-0.19 -1.67,-0.55 -0.37,-0.36 -0.56,-0.91 -0.56,-1.65l0 -3.38zm6.55 2.3l0.33 0c0.42,0 0.72,-0.06 0.89,-0.18 0.18,-0.11 0.26,-0.31 0.26,-0.58 0,-0.29 -0.08,-0.5 -0.24,-0.62 -0.16,-0.12 -0.46,-0.18 -0.91,-0.18l-0.33 0 0 1.56zm0 2.4l0.3 0c0.31,0 0.54,-0.02 0.69,-0.04 0.16,-0.03 0.28,-0.07 0.37,-0.13 0.1,-0.07 0.19,-0.17 0.25,-0.29 0.06,-0.12 0.09,-0.25 0.09,-0.4 0,-0.17 -0.04,-0.33 -0.11,-0.45 -0.07,-0.13 -0.18,-0.23 -0.31,-0.3 -0.08,-0.05 -0.18,-0.08 -0.29,-0.1 -0.1,-0.02 -0.25,-0.03 -0.43,-0.03l-0.26 0 -0.3 0 0 1.74zm-0.87 0.73l0 -5.43 1.37 0c0.39,0 0.68,0.02 0.86,0.07 0.19,0.04 0.35,0.11 0.48,0.2 0.17,0.13 0.3,0.29 0.39,0.49 0.1,0.2 0.14,0.42 0.14,0.66 0,0.29 -0.06,0.54 -0.2,0.73 -0.13,0.19 -0.33,0.33 -0.58,0.41 0.32,0.04 0.56,0.19 0.75,0.43 0.18,0.24 0.27,0.54 0.27,0.9 0,0.22 -0.04,0.43 -0.12,0.63 -0.07,0.19 -0.18,0.36 -0.32,0.5 -0.15,0.15 -0.34,0.26 -0.56,0.32 -0.22,0.06 -0.58,0.09 -1.1,0.09l-1.38 0zm4.37 0l0 -5.43 0.89 0 0 4.64 1.97 0 0 0.79 -2.86 0zm3.59 0l0 -5.43 0.88 0 0 5.43 -0.88 0zm2.15 0l0 -5.43 0.88 0 0 2.25 1.95 -2.25 1.09 0 -2.16 2.42 2.41 3.01 -1.14 0 -2.15 -2.77 0 2.77 -0.88 0zm7.02 0l0 -5.43 0.88 0 0 5.43 -0.88 0zm2.15 0l0 -5.64 3.45 3.32c0.09,0.09 0.19,0.19 0.29,0.3 0.09,0.1 0.19,0.22 0.3,0.36l0 -3.77 0.81 0 0 5.64 -3.52 -3.37c-0.09,-0.1 -0.18,-0.19 -0.27,-0.29 -0.09,-0.11 -0.17,-0.21 -0.25,-0.32l0 3.77 -0.81 0zm6.98 -0.8l0.74 0c0.41,0 0.72,-0.02 0.92,-0.08 0.21,-0.05 0.38,-0.14 0.53,-0.27 0.21,-0.18 0.36,-0.39 0.47,-0.66 0.1,-0.26 0.15,-0.56 0.15,-0.91 0,-0.34 -0.05,-0.65 -0.15,-0.91 -0.11,-0.26 -0.26,-0.48 -0.47,-0.65 -0.15,-0.13 -0.33,-0.22 -0.55,-0.28 -0.21,-0.05 -0.55,-0.08 -1,-0.08l-0.32 0 -0.32 0 0 3.84zm-0.88 0.8l0 -5.43 1.19 0c0.77,0 1.32,0.04 1.63,0.12 0.32,0.08 0.59,0.21 0.83,0.39 0.32,0.24 0.55,0.55 0.72,0.92 0.16,0.38 0.24,0.81 0.24,1.29 0,0.48 -0.08,0.91 -0.24,1.28 -0.17,0.37 -0.4,0.68 -0.72,0.92 -0.24,0.19 -0.51,0.32 -0.81,0.4 -0.3,0.07 -0.77,0.11 -1.41,0.11l-0.24 0 -1.19 0zm10.27 -2.7c0,-0.28 -0.05,-0.54 -0.15,-0.78 -0.1,-0.25 -0.25,-0.47 -0.43,-0.66 -0.19,-0.19 -0.4,-0.34 -0.64,-0.44 -0.24,-0.1 -0.5,-0.16 -0.76,-0.16 -0.27,0 -0.52,0.05 -0.76,0.16 -0.24,0.1 -0.46,0.24 -0.65,0.44 -0.18,0.19 -0.33,0.41 -0.43,0.65 -0.1,0.25 -0.15,0.51 -0.15,0.79 0,0.27 0.05,0.53 0.15,0.78 0.1,0.24 0.25,0.46 0.43,0.65 0.19,0.2 0.4,0.34 0.64,0.44 0.24,0.11 0.5,0.16 0.77,0.16 0.26,0 0.51,-0.05 0.75,-0.16 0.24,-0.1 0.46,-0.24 0.65,-0.44 0.18,-0.19 0.33,-0.41 0.43,-0.65 0.1,-0.25 0.15,-0.51 0.15,-0.78zm0.92 0c0,0.38 -0.07,0.75 -0.22,1.09 -0.14,0.35 -0.35,0.65 -0.63,0.92 -0.28,0.27 -0.6,0.48 -0.95,0.62 -0.35,0.14 -0.72,0.22 -1.1,0.22 -0.39,0 -0.76,-0.08 -1.12,-0.22 -0.35,-0.15 -0.67,-0.35 -0.94,-0.62 -0.28,-0.27 -0.49,-0.57 -0.63,-0.91 -0.14,-0.34 -0.21,-0.71 -0.21,-1.1 0,-0.39 0.07,-0.76 0.21,-1.1 0.14,-0.34 0.35,-0.65 0.63,-0.92 0.28,-0.27 0.59,-0.48 0.94,-0.62 0.35,-0.14 0.73,-0.21 1.12,-0.21 0.39,0 0.76,0.07 1.11,0.21 0.35,0.14 0.66,0.35 0.94,0.62 0.28,0.27 0.49,0.58 0.63,0.93 0.15,0.34 0.22,0.71 0.22,1.09zm1.01 2.7l0 -5.64 3.45 3.32c0.09,0.09 0.19,0.19 0.29,0.3 0.09,0.1 0.19,0.22 0.3,0.36l0 -3.77 0.81 0 0 5.64 -3.52 -3.37c-0.09,-0.1 -0.18,-0.19 -0.27,-0.29 -0.09,-0.11 -0.17,-0.21 -0.25,-0.32l0 3.77 -0.81 0zm6.1 0l0 -5.43 3.03 0 0 0.75 -2.15 0 0 1.36 2.15 0 0 0.78 -2.15 0 0 1.75 2.15 0 0 0.79 -3.03 0zm3.73 -1.09l0.7 -0.32c0.07,0.24 0.19,0.43 0.37,0.55 0.18,0.13 0.41,0.19 0.68,0.19 0.27,0 0.47,-0.07 0.63,-0.21 0.15,-0.15 0.23,-0.35 0.23,-0.59 0,-0.32 -0.26,-0.6 -0.79,-0.85 -0.08,-0.04 -0.14,-0.07 -0.17,-0.08 -0.6,-0.3 -1,-0.56 -1.2,-0.8 -0.2,-0.23 -0.3,-0.52 -0.3,-0.86 0,-0.45 0.15,-0.8 0.45,-1.08 0.3,-0.27 0.7,-0.41 1.18,-0.41 0.4,0 0.74,0.08 1.01,0.23 0.27,0.16 0.45,0.38 0.56,0.67l-0.69 0.35c-0.11,-0.17 -0.23,-0.29 -0.36,-0.37 -0.13,-0.08 -0.28,-0.12 -0.45,-0.12 -0.23,0 -0.42,0.06 -0.56,0.19 -0.14,0.12 -0.21,0.28 -0.21,0.49 0,0.33 0.3,0.63 0.92,0.91 0.05,0.03 0.08,0.05 0.11,0.06 0.54,0.24 0.91,0.49 1.11,0.72 0.2,0.24 0.3,0.53 0.3,0.89 0,0.51 -0.17,0.92 -0.49,1.22 -0.32,0.3 -0.76,0.46 -1.31,0.46 -0.47,0 -0.85,-0.11 -1.14,-0.32 -0.3,-0.22 -0.49,-0.52 -0.58,-0.92zm4.49 1.09l0 -5.43 0.88 0 0 5.43 -0.88 0zm3.3 -2.13l1.51 0 -0.55 -1.24c-0.03,-0.08 -0.07,-0.17 -0.1,-0.27 -0.04,-0.1 -0.07,-0.22 -0.11,-0.34 -0.03,0.11 -0.06,0.22 -0.09,0.33 -0.03,0.1 -0.07,0.19 -0.1,0.28l-0.56 1.24zm2.44 2.13l-0.61 -1.4 -2.16 0 -0.63 1.4 -0.92 0 2.63 -5.64 2.62 5.64 -0.93 0zm-74.75 5.95l0.23 0c0.49,0 0.82,-0.06 0.98,-0.16 0.16,-0.11 0.24,-0.3 0.24,-0.57 0,-0.28 -0.08,-0.49 -0.26,-0.61 -0.17,-0.12 -0.49,-0.17 -0.96,-0.17l-0.23 0 0 1.51zm-0.05 0.72l0 2.44 -0.83 0 0 -5.43 1.34 0c0.39,0 0.68,0.02 0.87,0.06 0.19,0.04 0.35,0.12 0.49,0.21 0.17,0.13 0.3,0.3 0.4,0.51 0.1,0.22 0.14,0.45 0.14,0.71 0,0.26 -0.04,0.49 -0.14,0.71 -0.1,0.22 -0.23,0.39 -0.4,0.51 -0.14,0.1 -0.3,0.17 -0.49,0.21 -0.19,0.05 -0.48,0.07 -0.87,0.07l-0.18 0 -0.33 0zm3.19 -2.99l0.87 0 0 3.29c0,0.49 0.12,0.86 0.34,1.11 0.23,0.24 0.57,0.36 1.02,0.36 0.44,0 0.78,-0.12 1.01,-0.36 0.22,-0.25 0.34,-0.62 0.34,-1.11l0 -3.29 0.88 0 0 3.37c0,0.74 -0.19,1.29 -0.56,1.65 -0.37,0.37 -0.93,0.55 -1.67,0.55 -0.75,0 -1.31,-0.18 -1.68,-0.55 -0.37,-0.36 -0.55,-0.91 -0.55,-1.65l0 -3.37zm5.36 4.34l0.71 -0.33c0.06,0.24 0.19,0.43 0.37,0.56 0.17,0.12 0.4,0.19 0.68,0.19 0.26,0 0.47,-0.08 0.62,-0.22 0.16,-0.15 0.24,-0.34 0.24,-0.59 0,-0.32 -0.27,-0.6 -0.8,-0.85 -0.07,-0.04 -0.13,-0.06 -0.17,-0.08 -0.6,-0.29 -1,-0.56 -1.2,-0.79 -0.19,-0.24 -0.29,-0.53 -0.29,-0.87 0,-0.44 0.15,-0.8 0.45,-1.07 0.3,-0.28 0.69,-0.42 1.18,-0.42 0.4,0 0.73,0.08 1,0.24 0.27,0.15 0.46,0.37 0.56,0.66l-0.69 0.36c-0.1,-0.17 -0.22,-0.3 -0.35,-0.38 -0.13,-0.08 -0.28,-0.12 -0.45,-0.12 -0.24,0 -0.43,0.07 -0.57,0.19 -0.14,0.12 -0.21,0.29 -0.21,0.5 0,0.32 0.31,0.63 0.92,0.91 0.05,0.02 0.09,0.04 0.11,0.05 0.54,0.25 0.91,0.49 1.11,0.73 0.2,0.23 0.3,0.53 0.3,0.88 0,0.51 -0.16,0.92 -0.49,1.23 -0.32,0.3 -0.76,0.45 -1.31,0.45 -0.46,0 -0.84,-0.11 -1.14,-0.32 -0.29,-0.21 -0.49,-0.52 -0.58,-0.91zm5.63 -1.05l1.51 0 -0.55 -1.24c-0.04,-0.07 -0.07,-0.17 -0.1,-0.27 -0.04,-0.1 -0.07,-0.21 -0.11,-0.34 -0.03,0.12 -0.06,0.23 -0.09,0.33 -0.04,0.1 -0.07,0.2 -0.1,0.28l-0.56 1.24zm2.44 2.14l-0.62 -1.4 -2.15 0 -0.63 1.4 -0.92 0 2.63 -5.65 2.62 5.65 -0.93 0zm2.78 -4.68l0 4.68 -0.88 0 0 -4.68 -1.44 0 0 -0.75 3.76 0 0 0.75 -1.44 0zm5.28 1.52l0.23 0c0.49,0 0.82,-0.06 0.98,-0.16 0.16,-0.11 0.24,-0.3 0.24,-0.57 0,-0.28 -0.08,-0.49 -0.26,-0.61 -0.17,-0.12 -0.49,-0.17 -0.96,-0.17l-0.23 0 0 1.51zm-0.05 0.72l0 2.44 -0.83 0 0 -5.43 1.34 0c0.39,0 0.68,0.02 0.87,0.06 0.19,0.04 0.35,0.12 0.49,0.21 0.17,0.13 0.3,0.3 0.4,0.51 0.1,0.22 0.15,0.45 0.15,0.71 0,0.26 -0.05,0.49 -0.15,0.71 -0.1,0.22 -0.23,0.39 -0.4,0.51 -0.14,0.1 -0.3,0.17 -0.49,0.21 -0.19,0.05 -0.48,0.07 -0.87,0.07l-0.18 0 -0.33 0zm3.21 2.44l0 -5.43 3.04 0 0 0.75 -2.15 0 0 1.36 2.15 0 0 0.77 -2.15 0 0 1.76 2.15 0 0 0.79 -3.04 0zm4.05 0l0 -5.65 3.45 3.32c0.09,0.09 0.19,0.19 0.28,0.3 0.1,0.11 0.2,0.23 0.31,0.36l0 -3.76 0.81 0 0 5.64 -3.52 -3.38c-0.09,-0.09 -0.18,-0.19 -0.27,-0.29 -0.09,-0.1 -0.17,-0.21 -0.25,-0.32l0 3.78 -0.81 0zm6.98 -0.8l0.74 0c0.41,0 0.71,-0.03 0.92,-0.08 0.2,-0.06 0.38,-0.15 0.53,-0.28 0.21,-0.17 0.36,-0.39 0.46,-0.65 0.11,-0.26 0.16,-0.57 0.16,-0.91 0,-0.35 -0.05,-0.65 -0.16,-0.91 -0.1,-0.27 -0.25,-0.48 -0.46,-0.66 -0.15,-0.13 -0.34,-0.22 -0.55,-0.27 -0.21,-0.06 -0.55,-0.08 -1,-0.08l-0.32 0 -0.32 0 0 3.84zm-0.88 0.8l0 -5.43 1.19 0c0.77,0 1.31,0.03 1.63,0.11 0.32,0.08 0.59,0.21 0.83,0.39 0.31,0.24 0.55,0.55 0.71,0.93 0.17,0.37 0.25,0.8 0.25,1.28 0,0.49 -0.08,0.91 -0.25,1.29 -0.16,0.37 -0.4,0.68 -0.71,0.92 -0.24,0.18 -0.51,0.31 -0.81,0.39 -0.3,0.08 -0.78,0.12 -1.42,0.12l-0.23 0 -1.19 0zm5.63 0l0 -5.43 0.88 0 0 5.43 -0.88 0zm3.03 -0.8l0.75 0c0.41,0 0.71,-0.03 0.92,-0.08 0.2,-0.06 0.38,-0.15 0.53,-0.28 0.2,-0.17 0.36,-0.39 0.46,-0.65 0.1,-0.26 0.15,-0.57 0.15,-0.91 0,-0.35 -0.05,-0.65 -0.15,-0.91 -0.1,-0.27 -0.26,-0.48 -0.46,-0.66 -0.16,-0.13 -0.34,-0.22 -0.55,-0.27 -0.22,-0.06 -0.55,-0.08 -1.01,-0.08l-0.32 0 -0.32 0 0 3.84zm-0.88 0.8l0 -5.43 1.19 0c0.78,0 1.32,0.03 1.64,0.11 0.31,0.08 0.59,0.21 0.83,0.39 0.31,0.24 0.55,0.55 0.71,0.93 0.16,0.37 0.24,0.8 0.24,1.28 0,0.49 -0.08,0.91 -0.24,1.29 -0.16,0.37 -0.4,0.68 -0.71,0.92 -0.24,0.18 -0.51,0.31 -0.81,0.39 -0.31,0.08 -0.78,0.12 -1.42,0.12l-0.24 0 -1.19 0zm5.64 0l0 -5.43 0.88 0 0 5.43 -0.88 0zm2.15 0l0 -5.43 0.88 0 0 2.24 1.95 -2.24 1.08 0 -2.15 2.41 2.41 3.02 -1.14 0 -2.15 -2.78 0 2.78 -0.88 0zm5.86 -2.14l1.51 0 -0.56 -1.24c-0.03,-0.07 -0.06,-0.17 -0.1,-0.27 -0.03,-0.1 -0.07,-0.21 -0.1,-0.34 -0.03,0.12 -0.06,0.23 -0.09,0.33 -0.04,0.1 -0.07,0.2 -0.11,0.28l-0.55 1.24zm2.44 2.14l-0.62 -1.4 -2.15 0 -0.63 1.4 -0.93 0 2.63 -5.65 2.63 5.65 -0.93 0zm1.44 0l0 -5.65 3.45 3.32c0.09,0.09 0.19,0.19 0.29,0.3 0.09,0.11 0.19,0.23 0.3,0.36l0 -3.76 0.81 0 0 5.64 -3.52 -3.38c-0.09,-0.09 -0.18,-0.19 -0.27,-0.29 -0.09,-0.1 -0.17,-0.21 -0.25,-0.32l0 3.78 -0.81 0zm-63.25 8.3l0.75 0c0.4,0 0.71,-0.02 0.91,-0.08 0.21,-0.05 0.39,-0.15 0.54,-0.27 0.2,-0.18 0.36,-0.4 0.46,-0.66 0.1,-0.26 0.15,-0.56 0.15,-0.91 0,-0.35 -0.05,-0.65 -0.15,-0.91 -0.1,-0.26 -0.26,-0.48 -0.46,-0.66 -0.16,-0.12 -0.34,-0.22 -0.55,-0.27 -0.22,-0.05 -0.55,-0.08 -1.01,-0.08l-0.32 0 -0.32 0 0 3.84zm-0.88 0.8l0 -5.43 1.19 0c0.77,0 1.32,0.04 1.64,0.12 0.31,0.07 0.59,0.2 0.82,0.39 0.32,0.24 0.56,0.54 0.72,0.92 0.16,0.38 0.24,0.81 0.24,1.29 0,0.48 -0.08,0.91 -0.24,1.28 -0.16,0.37 -0.4,0.68 -0.72,0.92 -0.23,0.18 -0.5,0.31 -0.81,0.39 -0.3,0.08 -0.77,0.12 -1.41,0.12l-0.24 0 -1.19 0zm6.64 -2.13l1.51 0 -0.56 -1.24c-0.03,-0.08 -0.06,-0.17 -0.1,-0.27 -0.03,-0.11 -0.07,-0.22 -0.1,-0.35 -0.03,0.12 -0.06,0.23 -0.1,0.33 -0.03,0.11 -0.06,0.2 -0.1,0.29l-0.55 1.24zm2.44 2.13l-0.62 -1.4 -2.15 0 -0.63 1.4 -0.93 0 2.63 -5.64 2.63 5.64 -0.93 0zm1.44 0l0 -5.64 3.45 3.31c0.09,0.1 0.19,0.2 0.29,0.3 0.09,0.11 0.19,0.23 0.3,0.36l0 -3.76 0.81 0 0 5.64 -3.52 -3.38c-0.09,-0.09 -0.18,-0.19 -0.27,-0.29 -0.09,-0.1 -0.17,-0.21 -0.25,-0.32l0 3.78 -0.81 0zm9.27 -3.16l0.23 0c0.49,0 0.81,-0.05 0.98,-0.16 0.16,-0.11 0.24,-0.29 0.24,-0.56 0,-0.29 -0.09,-0.5 -0.26,-0.61 -0.17,-0.12 -0.49,-0.18 -0.96,-0.18l-0.23 0 0 1.51zm-0.05 0.72l0 2.44 -0.83 0 0 -5.43 1.33 0c0.4,0 0.69,0.02 0.88,0.06 0.19,0.05 0.35,0.12 0.49,0.22 0.17,0.12 0.3,0.29 0.4,0.51 0.1,0.21 0.14,0.45 0.14,0.7 0,0.26 -0.04,0.5 -0.14,0.72 -0.1,0.21 -0.23,0.38 -0.4,0.51 -0.14,0.1 -0.3,0.17 -0.49,0.21 -0.19,0.04 -0.48,0.06 -0.88,0.06l-0.17 0 -0.33 0zm3.21 2.44l0 -5.43 3.03 0 0 0.75 -2.15 0 0 1.36 2.15 0 0 0.77 -2.15 0 0 1.76 2.15 0 0 0.79 -3.03 0zm4.04 0l0 -5.43 0.88 0 0 4.64 1.98 0 0 0.79 -2.86 0zm4.72 -2.13l1.52 0 -0.56 -1.24c-0.03,-0.08 -0.07,-0.17 -0.1,-0.27 -0.04,-0.11 -0.07,-0.22 -0.11,-0.35 -0.02,0.12 -0.06,0.23 -0.09,0.33 -0.03,0.11 -0.07,0.2 -0.1,0.29l-0.56 1.24zm2.44 2.13l-0.61 -1.4 -2.16 0 -0.63 1.4 -0.92 0 2.63 -5.64 2.62 5.64 -0.93 0zm2.78 -4.68l0 4.68 -0.88 0 0 -4.68 -1.44 0 0 -0.75 3.76 0 0 0.75 -1.44 0zm2.13 4.68l0 -5.43 0.88 0 0 5.43 -0.88 0zm2.15 0l0 -5.43 0.88 0 0 2 2.67 0 0 -2 0.88 0 0 5.43 -0.88 0 0 -2.64 -2.67 0 0 2.64 -0.88 0zm6.83 -2.13l1.51 0 -0.56 -1.24c-0.03,-0.08 -0.06,-0.17 -0.1,-0.27 -0.03,-0.11 -0.07,-0.22 -0.1,-0.35 -0.03,0.12 -0.06,0.23 -0.1,0.33 -0.03,0.11 -0.06,0.2 -0.1,0.29l-0.55 1.24zm2.44 2.13l-0.62 -1.4 -2.15 0 -0.63 1.4 -0.93 0 2.63 -5.64 2.63 5.64 -0.93 0zm1.44 0l0 -5.64 3.45 3.31c0.09,0.1 0.19,0.2 0.29,0.3 0.09,0.11 0.19,0.23 0.3,0.36l0 -3.76 0.81 0 0 5.64 -3.52 -3.38c-0.09,-0.09 -0.18,-0.19 -0.27,-0.29 -0.09,-0.1 -0.17,-0.21 -0.25,-0.32l0 3.78 -0.81 0zm8.39 0l0 -5.43 0.88 0 0 2.25 1.95 -2.25 1.08 0 -2.15 2.41 2.41 3.02 -1.14 0 -2.15 -2.78 0 2.78 -0.88 0zm4.71 0l0 -5.43 3.03 0 0 0.75 -2.15 0 0 1.36 2.15 0 0 0.77 -2.15 0 0 1.76 2.15 0 0 0.79 -3.03 0zm5.19 -2.13l1.51 0 -0.55 -1.24c-0.04,-0.08 -0.07,-0.17 -0.1,-0.27 -0.04,-0.11 -0.07,-0.22 -0.11,-0.35 -0.03,0.12 -0.06,0.23 -0.09,0.33 -0.04,0.11 -0.07,0.2 -0.1,0.29l-0.56 1.24zm2.44 2.13l-0.62 -1.4 -2.15 0 -0.63 1.4 -0.92 0 2.62 -5.64 2.63 5.64 -0.93 0zm2.32 -3.11l0.16 0c0.47,0 0.78,-0.06 0.93,-0.17 0.16,-0.11 0.23,-0.3 0.23,-0.58 0,-0.3 -0.08,-0.51 -0.24,-0.63 -0.17,-0.12 -0.47,-0.18 -0.92,-0.18l-0.16 0 0 1.56zm-0.05 0.68l0 2.43 -0.83 0 0 -5.43 1.23 0c0.36,0 0.64,0.02 0.84,0.07 0.2,0.05 0.37,0.12 0.51,0.23 0.17,0.13 0.3,0.3 0.39,0.51 0.09,0.21 0.14,0.44 0.14,0.68 0,0.44 -0.11,0.78 -0.32,1.03 -0.21,0.24 -0.52,0.39 -0.93,0.44l1.87 2.47 -0.99 0 -1.81 -2.43 -0.1 0zm3.11 1.34l0.71 -0.32c0.06,0.24 0.19,0.42 0.36,0.55 0.18,0.13 0.41,0.19 0.69,0.19 0.26,0 0.47,-0.07 0.62,-0.22 0.16,-0.14 0.24,-0.34 0.24,-0.58 0,-0.32 -0.27,-0.61 -0.8,-0.86 -0.07,-0.03 -0.13,-0.06 -0.17,-0.08 -0.6,-0.29 -1,-0.55 -1.2,-0.79 -0.2,-0.24 -0.3,-0.52 -0.3,-0.87 0,-0.44 0.16,-0.8 0.46,-1.07 0.3,-0.28 0.69,-0.41 1.18,-0.41 0.4,0 0.73,0.07 1,0.23 0.27,0.15 0.46,0.38 0.56,0.66l-0.69 0.36c-0.11,-0.17 -0.22,-0.3 -0.35,-0.37 -0.14,-0.08 -0.28,-0.12 -0.45,-0.12 -0.24,0 -0.43,0.06 -0.57,0.18 -0.14,0.13 -0.21,0.29 -0.21,0.5 0,0.33 0.31,0.63 0.92,0.91 0.05,0.02 0.09,0.04 0.11,0.05 0.54,0.25 0.91,0.49 1.11,0.73 0.2,0.24 0.3,0.53 0.3,0.88 0,0.52 -0.16,0.93 -0.49,1.23 -0.32,0.3 -0.76,0.45 -1.31,0.45 -0.46,0 -0.84,-0.1 -1.14,-0.32 -0.29,-0.21 -0.49,-0.51 -0.58,-0.91zm4.5 1.09l0 -5.43 0.88 0 0 5.43 -0.88 0zm3.03 -3.16l0.23 0c0.49,0 0.81,-0.05 0.98,-0.16 0.16,-0.11 0.24,-0.29 0.24,-0.56 0,-0.29 -0.09,-0.5 -0.26,-0.61 -0.18,-0.12 -0.5,-0.18 -0.96,-0.18l-0.23 0 0 1.51zm-0.05 0.72l0 2.44 -0.83 0 0 -5.43 1.33 0c0.4,0 0.69,0.02 0.88,0.06 0.18,0.05 0.35,0.12 0.49,0.22 0.17,0.12 0.3,0.29 0.4,0.51 0.09,0.21 0.14,0.45 0.14,0.7 0,0.26 -0.05,0.5 -0.14,0.72 -0.1,0.21 -0.23,0.38 -0.4,0.51 -0.14,0.1 -0.31,0.17 -0.49,0.21 -0.19,0.04 -0.48,0.06 -0.88,0.06l-0.17 0 -0.33 0zm3.94 0.31l1.52 0 -0.56 -1.24c-0.03,-0.08 -0.07,-0.17 -0.1,-0.27 -0.04,-0.11 -0.07,-0.22 -0.11,-0.35 -0.02,0.12 -0.06,0.23 -0.09,0.33 -0.03,0.11 -0.07,0.2 -0.1,0.29l-0.56 1.24zm2.44 2.13l-0.61 -1.4 -2.16 0 -0.63 1.4 -0.92 0 2.63 -5.64 2.62 5.64 -0.93 0zm1.44 0l0 -5.64 3.45 3.31c0.1,0.1 0.19,0.2 0.29,0.3 0.1,0.11 0.2,0.23 0.3,0.36l0 -3.76 0.82 0 0 5.64 -3.52 -3.38c-0.09,-0.09 -0.19,-0.19 -0.27,-0.29 -0.09,-0.1 -0.17,-0.21 -0.25,-0.32l0 3.78 -0.82 0z"/>
 </g>
</svg>
